<mxfile host="65bd71144e">
    <diagram id="sIit3fdld6_2hjF-rAca" name="第 1 页">
        <mxGraphModel dx="732" dy="546" grid="1" gridSize="10" guides="1" tooltips="1" connect="1" arrows="1" fold="1" page="1" pageScale="1" pageWidth="1200" pageHeight="2200" math="0" shadow="0">
            <root>
                <mxCell id="0"/>
                <mxCell id="1" parent="0"/>
                <mxCell id="13" style="edgeStyle=none;html=1;entryX=0.5;entryY=0;entryDx=0;entryDy=0;" parent="1" source="2" target="3" edge="1">
                    <mxGeometry relative="1" as="geometry"/>
                </mxCell>
                <mxCell id="2" value="" style="ellipse;whiteSpace=wrap;html=1;aspect=fixed;fillColor=#F0F0F0;" parent="1" vertex="1">
                    <mxGeometry x="80" y="181" width="40" height="40" as="geometry"/>
                </mxCell>
                <mxCell id="3" value="" style="ellipse;whiteSpace=wrap;html=1;aspect=fixed;fillColor=#F0F0F0;" parent="1" vertex="1">
                    <mxGeometry x="80" y="341" width="40" height="40" as="geometry"/>
                </mxCell>
                <mxCell id="4" value="" style="ellipse;whiteSpace=wrap;html=1;aspect=fixed;fillColor=#99CCFF;" parent="1" vertex="1">
                    <mxGeometry x="200" y="341" width="40" height="40" as="geometry"/>
                </mxCell>
                <mxCell id="5" value="" style="ellipse;whiteSpace=wrap;html=1;aspect=fixed;fillColor=#FFFFFF;" parent="1" vertex="1">
                    <mxGeometry x="320" y="341" width="40" height="40" as="geometry"/>
                </mxCell>
                <mxCell id="6" value="" style="ellipse;whiteSpace=wrap;html=1;aspect=fixed;fillColor=#FFFFFF;" parent="1" vertex="1">
                    <mxGeometry x="440" y="341" width="40" height="40" as="geometry"/>
                </mxCell>
                <mxCell id="7" value="" style="ellipse;whiteSpace=wrap;html=1;aspect=fixed;fillColor=#FFFFFF;" parent="1" vertex="1">
                    <mxGeometry x="560" y="341" width="40" height="40" as="geometry"/>
                </mxCell>
                <mxCell id="14" style="edgeStyle=none;html=1;entryX=0.5;entryY=0;entryDx=0;entryDy=0;" parent="1" source="8" target="4" edge="1">
                    <mxGeometry relative="1" as="geometry"/>
                </mxCell>
                <mxCell id="8" value="" style="ellipse;whiteSpace=wrap;html=1;aspect=fixed;fillColor=#99CCFF;" parent="1" vertex="1">
                    <mxGeometry x="200" y="181" width="40" height="40" as="geometry"/>
                </mxCell>
                <mxCell id="15" style="edgeStyle=none;html=1;entryX=0.5;entryY=0;entryDx=0;entryDy=0;" parent="1" source="9" target="5" edge="1">
                    <mxGeometry relative="1" as="geometry"/>
                </mxCell>
                <mxCell id="9" value="" style="ellipse;whiteSpace=wrap;html=1;aspect=fixed;fillColor=#FFFFFF;" parent="1" vertex="1">
                    <mxGeometry x="320" y="181" width="40" height="40" as="geometry"/>
                </mxCell>
                <mxCell id="10" value="" style="ellipse;whiteSpace=wrap;html=1;aspect=fixed;fillColor=#FFFFFF;" parent="1" vertex="1">
                    <mxGeometry x="440" y="181" width="40" height="40" as="geometry"/>
                </mxCell>
                <mxCell id="11" value="旧VNode" style="text;html=1;strokeColor=none;fillColor=none;align=center;verticalAlign=middle;whiteSpace=wrap;" parent="1" vertex="1">
                    <mxGeometry x="680" y="186" width="60" height="30" as="geometry"/>
                </mxCell>
                <mxCell id="12" value="新VNode" style="text;html=1;strokeColor=none;fillColor=none;align=center;verticalAlign=middle;whiteSpace=wrap;" parent="1" vertex="1">
                    <mxGeometry x="680" y="341" width="60" height="30" as="geometry"/>
                </mxCell>
                <mxCell id="16" value="a" style="text;html=1;strokeColor=none;fillColor=none;align=center;verticalAlign=middle;whiteSpace=wrap;fontColor=#000000;" parent="1" vertex="1">
                    <mxGeometry x="70" y="186" width="60" height="30" as="geometry"/>
                </mxCell>
                <mxCell id="18" value="a" style="text;html=1;strokeColor=none;fillColor=none;align=center;verticalAlign=middle;whiteSpace=wrap;fontColor=#000000;" parent="1" vertex="1">
                    <mxGeometry x="70" y="346" width="60" height="30" as="geometry"/>
                </mxCell>
                <mxCell id="19" value="b" style="text;html=1;strokeColor=none;fillColor=none;align=center;verticalAlign=middle;whiteSpace=wrap;fontColor=#000000;" parent="1" vertex="1">
                    <mxGeometry x="190" y="186" width="60" height="30" as="geometry"/>
                </mxCell>
                <mxCell id="20" value="b" style="text;html=1;strokeColor=none;fillColor=none;align=center;verticalAlign=middle;whiteSpace=wrap;fontColor=#000000;" parent="1" vertex="1">
                    <mxGeometry x="190" y="346" width="60" height="30" as="geometry"/>
                </mxCell>
                <mxCell id="21" value="c" style="text;html=1;strokeColor=none;fillColor=none;align=center;verticalAlign=middle;whiteSpace=wrap;fontColor=#000000;" parent="1" vertex="1">
                    <mxGeometry x="310" y="186" width="60" height="30" as="geometry"/>
                </mxCell>
                <mxCell id="22" value="f" style="text;html=1;strokeColor=none;fillColor=none;align=center;verticalAlign=middle;whiteSpace=wrap;fontColor=#000000;" parent="1" vertex="1">
                    <mxGeometry x="310" y="346" width="60" height="30" as="geometry"/>
                </mxCell>
                <mxCell id="23" value="d" style="text;html=1;strokeColor=none;fillColor=none;align=center;verticalAlign=middle;whiteSpace=wrap;fontColor=#000000;" parent="1" vertex="1">
                    <mxGeometry x="430" y="186" width="60" height="30" as="geometry"/>
                </mxCell>
                <mxCell id="25" value="c" style="text;html=1;strokeColor=none;fillColor=none;align=center;verticalAlign=middle;whiteSpace=wrap;fontColor=#000000;" parent="1" vertex="1">
                    <mxGeometry x="430" y="346" width="60" height="30" as="geometry"/>
                </mxCell>
                <mxCell id="26" value="d" style="text;html=1;strokeColor=none;fillColor=none;align=center;verticalAlign=middle;whiteSpace=wrap;fontColor=#000000;" parent="1" vertex="1">
                    <mxGeometry x="550" y="346" width="60" height="30" as="geometry"/>
                </mxCell>
                <mxCell id="27" value="patch&lt;span style=&quot;color: rgba(0 , 0 , 0 , 0) ; font-family: monospace ; font-size: 0px&quot;&gt;%3CmxGraphModel%3E%3Croot%3E%3CmxCell%20id%3D%220%22%2F%3E%3CmxCell%20id%3D%221%22%20parent%3D%220%22%2F%3E%3CmxCell%20id%3D%222%22%20value%3D%22c%22%20style%3D%22text%3Bhtml%3D1%3BstrokeColor%3Dnone%3BfillColor%3Dnone%3Balign%3Dcenter%3BverticalAlign%3Dmiddle%3BwhiteSpace%3Dwrap%3Brounded%3D0%3BfontColor%3D%23000000%3B%22%20vertex%3D%221%22%20parent%3D%221%22%3E%3CmxGeometry%20x%3D%22310%22%20y%3D%22125%22%20width%3D%2260%22%20height%3D%2230%22%20as%3D%22geometry%22%2F%3E%3C%2FmxCell%3E%3C%2Froot%3E%3C%2FmxGraphModel%3E&lt;/span&gt;" style="text;html=1;strokeColor=none;fillColor=none;align=center;verticalAlign=middle;whiteSpace=wrap;fontColor=#FFFFFF;" parent="1" vertex="1">
                    <mxGeometry x="100" y="261" width="60" height="30" as="geometry"/>
                </mxCell>
                <mxCell id="28" value="patch&lt;span style=&quot;color: rgba(0 , 0 , 0 , 0) ; font-family: monospace ; font-size: 0px&quot;&gt;%3CmxGraphModel%3E%3Croot%3E%3CmxCell%20id%3D%220%22%2F%3E%3CmxCell%20id%3D%221%22%20parent%3D%220%22%2F%3E%3CmxCell%20id%3D%222%22%20value%3D%22c%22%20style%3D%22text%3Bhtml%3D1%3BstrokeColor%3Dnone%3BfillColor%3Dnone%3Balign%3Dcenter%3BverticalAlign%3Dmiddle%3BwhiteSpace%3Dwrap%3Brounded%3D0%3BfontColor%3D%23000000%3B%22%20vertex%3D%221%22%20parent%3D%221%22%3E%3CmxGeometry%20x%3D%22310%22%20y%3D%22125%22%20width%3D%2260%22%20height%3D%2230%22%20as%3D%22geometry%22%2F%3E%3C%2FmxCell%3E%3C%2Froot%3E%3C%2FmxGraphModel%3E&lt;/span&gt;" style="text;html=1;strokeColor=none;fillColor=none;align=center;verticalAlign=middle;whiteSpace=wrap;fontColor=#FFFFFF;" parent="1" vertex="1">
                    <mxGeometry x="210" y="261" width="60" height="30" as="geometry"/>
                </mxCell>
                <mxCell id="29" value="break" style="text;html=1;strokeColor=none;fillColor=none;align=center;verticalAlign=middle;whiteSpace=wrap;fontColor=#FFFFFF;" parent="1" vertex="1">
                    <mxGeometry x="340" y="261" width="60" height="30" as="geometry"/>
                </mxCell>
                <mxCell id="30" value="有key的diff算法" style="text;html=1;strokeColor=none;fillColor=none;align=center;verticalAlign=middle;whiteSpace=wrap;fontColor=#FF0000;fontSize=20;" parent="1" vertex="1">
                    <mxGeometry x="304" y="20" width="220" height="30" as="geometry"/>
                </mxCell>
                <mxCell id="31" value="第一步从头开始遍历、比较" style="text;html=1;strokeColor=none;fillColor=none;align=center;verticalAlign=middle;whiteSpace=wrap;fontSize=16;fontColor=#FF0000;" parent="1" vertex="1">
                    <mxGeometry x="70" y="70" width="210" height="30" as="geometry"/>
                </mxCell>
                <mxCell id="32" value="a和b是一致的会继续进行比较，c和f因为key不一致，所以会break跳出循环" style="text;html=1;strokeColor=none;fillColor=none;align=center;verticalAlign=middle;whiteSpace=wrap;fontSize=16;fontColor=#FF0000;" parent="1" vertex="1">
                    <mxGeometry x="80" y="120" width="540" height="30" as="geometry"/>
                </mxCell>
                <mxCell id="35" value="第二步从尾部开始进行遍历、比较" style="text;html=1;strokeColor=none;fillColor=none;align=center;verticalAlign=middle;whiteSpace=wrap;fontSize=16;fontColor=#FF0000;" parent="1" vertex="1">
                    <mxGeometry x="80" y="440" width="250" height="30" as="geometry"/>
                </mxCell>
                <mxCell id="37" value="" style="ellipse;whiteSpace=wrap;html=1;aspect=fixed;fontSize=16;fontColor=#FF0000;fillColor=#FFFFFF;" parent="1" vertex="1">
                    <mxGeometry x="200" y="499" width="40" height="40" as="geometry"/>
                </mxCell>
                <mxCell id="38" value="" style="ellipse;whiteSpace=wrap;html=1;aspect=fixed;fontSize=16;fontColor=#FF0000;fillColor=#FFFFFF;" parent="1" vertex="1">
                    <mxGeometry x="80" y="619" width="40" height="40" as="geometry"/>
                </mxCell>
                <mxCell id="39" value="" style="ellipse;whiteSpace=wrap;html=1;aspect=fixed;fontSize=16;fontColor=#FF0000;fillColor=#FFFFFF;" parent="1" vertex="1">
                    <mxGeometry x="200" y="619" width="40" height="40" as="geometry"/>
                </mxCell>
                <mxCell id="40" value="" style="ellipse;whiteSpace=wrap;html=1;aspect=fixed;fontSize=16;fontColor=#FF0000;fillColor=#FFFFFF;" parent="1" vertex="1">
                    <mxGeometry x="320" y="619" width="40" height="40" as="geometry"/>
                </mxCell>
                <mxCell id="41" value="" style="ellipse;whiteSpace=wrap;html=1;aspect=fixed;fontSize=16;fontColor=#FF0000;fillColor=#CCFFCC;" parent="1" vertex="1">
                    <mxGeometry x="440" y="619" width="40" height="40" as="geometry"/>
                </mxCell>
                <mxCell id="42" value="" style="ellipse;whiteSpace=wrap;html=1;aspect=fixed;fontSize=16;fontColor=#FF0000;fillColor=#FFE6CC;" parent="1" vertex="1">
                    <mxGeometry x="560" y="619" width="40" height="40" as="geometry"/>
                </mxCell>
                <mxCell id="43" value="" style="ellipse;whiteSpace=wrap;html=1;aspect=fixed;fontSize=16;fontColor=#FF0000;fillColor=#FFFFFF;" parent="1" vertex="1">
                    <mxGeometry x="320" y="499" width="40" height="40" as="geometry"/>
                </mxCell>
                <mxCell id="44" value="" style="ellipse;whiteSpace=wrap;html=1;aspect=fixed;fontSize=16;fontColor=#FF0000;fillColor=#CCFFCC;" parent="1" vertex="1">
                    <mxGeometry x="440" y="499" width="40" height="40" as="geometry"/>
                </mxCell>
                <mxCell id="45" value="" style="ellipse;whiteSpace=wrap;html=1;aspect=fixed;fontSize=16;fontColor=#FF0000;fillColor=#FFE6CC;" parent="1" vertex="1">
                    <mxGeometry x="560" y="499" width="40" height="40" as="geometry"/>
                </mxCell>
                <mxCell id="49" value="" style="edgeStyle=none;html=1;fontSize=12;fontColor=#000000;" parent="1" source="46" edge="1">
                    <mxGeometry relative="1" as="geometry">
                        <mxPoint x="580" y="620" as="targetPoint"/>
                    </mxGeometry>
                </mxCell>
                <mxCell id="46" value="d" style="text;html=1;strokeColor=none;fillColor=none;align=center;verticalAlign=middle;whiteSpace=wrap;fontSize=12;fontColor=#000000;" parent="1" vertex="1">
                    <mxGeometry x="550" y="504" width="60" height="30" as="geometry"/>
                </mxCell>
                <mxCell id="48" value="d" style="text;html=1;strokeColor=none;fillColor=none;align=center;verticalAlign=middle;whiteSpace=wrap;fontSize=12;fontColor=#000000;" parent="1" vertex="1">
                    <mxGeometry x="550" y="624" width="60" height="30" as="geometry"/>
                </mxCell>
                <mxCell id="52" value="" style="edgeStyle=none;html=1;fontSize=12;fontColor=#000000;" parent="1" source="50" edge="1">
                    <mxGeometry relative="1" as="geometry">
                        <mxPoint x="460" y="620" as="targetPoint"/>
                    </mxGeometry>
                </mxCell>
                <mxCell id="50" value="c" style="text;html=1;strokeColor=none;fillColor=none;align=center;verticalAlign=middle;whiteSpace=wrap;fontSize=12;fontColor=#000000;" parent="1" vertex="1">
                    <mxGeometry x="430" y="504" width="60" height="30" as="geometry"/>
                </mxCell>
                <mxCell id="51" value="c" style="text;html=1;strokeColor=none;fillColor=none;align=center;verticalAlign=middle;whiteSpace=wrap;fontSize=12;fontColor=#000000;" parent="1" vertex="1">
                    <mxGeometry x="430" y="624" width="60" height="30" as="geometry"/>
                </mxCell>
                <mxCell id="53" value="a" style="text;html=1;strokeColor=none;fillColor=none;align=center;verticalAlign=middle;whiteSpace=wrap;fontSize=12;fontColor=#000000;" parent="1" vertex="1">
                    <mxGeometry x="190" y="504" width="60" height="30" as="geometry"/>
                </mxCell>
                <mxCell id="54" value="a" style="text;html=1;strokeColor=none;fillColor=none;align=center;verticalAlign=middle;whiteSpace=wrap;fontSize=12;fontColor=#000000;" parent="1" vertex="1">
                    <mxGeometry x="70" y="624" width="60" height="30" as="geometry"/>
                </mxCell>
                <mxCell id="62" value="" style="edgeStyle=none;html=1;fontSize=12;fontColor=#FFFFFF;entryX=0.5;entryY=0;entryDx=0;entryDy=0;" parent="1" source="55" target="40" edge="1">
                    <mxGeometry relative="1" as="geometry">
                        <mxPoint x="340" y="610" as="targetPoint"/>
                    </mxGeometry>
                </mxCell>
                <mxCell id="55" value="b" style="text;html=1;strokeColor=none;fillColor=none;align=center;verticalAlign=middle;whiteSpace=wrap;fontSize=12;fontColor=#000000;" parent="1" vertex="1">
                    <mxGeometry x="310" y="504" width="60" height="30" as="geometry"/>
                </mxCell>
                <mxCell id="56" value="b" style="text;html=1;strokeColor=none;fillColor=none;align=center;verticalAlign=middle;whiteSpace=wrap;fontSize=12;fontColor=#000000;" parent="1" vertex="1">
                    <mxGeometry x="190" y="624" width="60" height="30" as="geometry"/>
                </mxCell>
                <mxCell id="57" value="f" style="text;html=1;strokeColor=none;fillColor=none;align=center;verticalAlign=middle;whiteSpace=wrap;fontSize=12;fontColor=#000000;" parent="1" vertex="1">
                    <mxGeometry x="310" y="624" width="60" height="30" as="geometry"/>
                </mxCell>
                <mxCell id="58" value="旧VNode" style="text;html=1;strokeColor=none;fillColor=none;align=center;verticalAlign=middle;whiteSpace=wrap;" parent="1" vertex="1">
                    <mxGeometry x="680" y="504" width="60" height="30" as="geometry"/>
                </mxCell>
                <mxCell id="59" value="新VNode" style="text;html=1;strokeColor=none;fillColor=none;align=center;verticalAlign=middle;whiteSpace=wrap;" parent="1" vertex="1">
                    <mxGeometry x="680" y="624" width="60" height="30" as="geometry"/>
                </mxCell>
                <mxCell id="60" value="patch" style="text;html=1;strokeColor=none;fillColor=none;align=center;verticalAlign=middle;whiteSpace=wrap;fontSize=12;fontColor=#FFFFFF;" parent="1" vertex="1">
                    <mxGeometry x="580" y="559" width="60" height="30" as="geometry"/>
                </mxCell>
                <mxCell id="61" value="patch" style="text;html=1;strokeColor=none;fillColor=none;align=center;verticalAlign=middle;whiteSpace=wrap;fontSize=12;fontColor=#FFFFFF;" parent="1" vertex="1">
                    <mxGeometry x="460" y="559" width="60" height="30" as="geometry"/>
                </mxCell>
                <mxCell id="63" value="break" style="text;html=1;strokeColor=none;fillColor=none;align=center;verticalAlign=middle;whiteSpace=wrap;fontSize=12;fontColor=#FFFFFF;" parent="1" vertex="1">
                    <mxGeometry x="340" y="559" width="60" height="30" as="geometry"/>
                </mxCell>
                <mxCell id="65" value="第三步如果旧节点遍历完毕，但是依然有新的节点，那么就新增节点" style="text;html=1;strokeColor=none;fillColor=none;align=center;verticalAlign=middle;whiteSpace=wrap;fontSize=16;fontColor=#FF0000;" parent="1" vertex="1">
                    <mxGeometry x="80" y="700" width="490" height="30" as="geometry"/>
                </mxCell>
                <mxCell id="66" value="" style="ellipse;whiteSpace=wrap;html=1;aspect=fixed;fontSize=16;fontColor=#FF0000;fillColor=#F0F0F0;" parent="1" vertex="1">
                    <mxGeometry x="80" y="760" width="40" height="40" as="geometry"/>
                </mxCell>
                <mxCell id="67" value="" style="ellipse;whiteSpace=wrap;html=1;aspect=fixed;fontSize=16;fontColor=#FF0000;fillColor=#F0F0F0;" parent="1" vertex="1">
                    <mxGeometry x="80" y="880" width="40" height="40" as="geometry"/>
                </mxCell>
                <mxCell id="68" value="" style="ellipse;whiteSpace=wrap;html=1;aspect=fixed;fontSize=16;fontColor=#FF0000;fillColor=#99CCFF;" parent="1" vertex="1">
                    <mxGeometry x="200" y="880" width="40" height="40" as="geometry"/>
                </mxCell>
                <mxCell id="69" value="" style="ellipse;whiteSpace=wrap;html=1;aspect=fixed;fontSize=16;fontColor=#FF0000;fillColor=#99FF99;" parent="1" vertex="1">
                    <mxGeometry x="320" y="880" width="40" height="40" as="geometry"/>
                </mxCell>
                <mxCell id="70" value="" style="ellipse;whiteSpace=wrap;html=1;aspect=fixed;fontSize=16;fontColor=#FF0000;fillColor=#CCFFCC;" parent="1" vertex="1">
                    <mxGeometry x="440" y="880" width="40" height="40" as="geometry"/>
                </mxCell>
                <mxCell id="71" value="" style="ellipse;whiteSpace=wrap;html=1;aspect=fixed;fontSize=16;fontColor=#FF0000;fillColor=#FFE6CC;" parent="1" vertex="1">
                    <mxGeometry x="560" y="880" width="40" height="40" as="geometry"/>
                </mxCell>
                <mxCell id="72" value="" style="ellipse;whiteSpace=wrap;html=1;aspect=fixed;fontSize=16;fontColor=#FF0000;fillColor=#99CCFF;" parent="1" vertex="1">
                    <mxGeometry x="200" y="760" width="40" height="40" as="geometry"/>
                </mxCell>
                <mxCell id="73" value="" style="ellipse;whiteSpace=wrap;html=1;aspect=fixed;fontSize=16;fontColor=#FF0000;fillColor=#CCFFCC;" parent="1" vertex="1">
                    <mxGeometry x="320" y="760" width="40" height="40" as="geometry"/>
                </mxCell>
                <mxCell id="74" value="" style="ellipse;whiteSpace=wrap;html=1;aspect=fixed;fontSize=16;fontColor=#FF0000;fillColor=#FFE6CC;" parent="1" vertex="1">
                    <mxGeometry x="440" y="760" width="40" height="40" as="geometry"/>
                </mxCell>
                <mxCell id="75" value="旧VNode" style="text;html=1;strokeColor=none;fillColor=none;align=center;verticalAlign=middle;whiteSpace=wrap;" parent="1" vertex="1">
                    <mxGeometry x="670" y="760" width="60" height="30" as="geometry"/>
                </mxCell>
                <mxCell id="76" value="新VNode" style="text;html=1;strokeColor=none;fillColor=none;align=center;verticalAlign=middle;whiteSpace=wrap;" parent="1" vertex="1">
                    <mxGeometry x="670" y="880" width="60" height="30" as="geometry"/>
                </mxCell>
                <mxCell id="86" value="" style="edgeStyle=none;html=1;fontSize=12;fontColor=#000000;" parent="1" source="77" target="78" edge="1">
                    <mxGeometry relative="1" as="geometry"/>
                </mxCell>
                <mxCell id="77" value="a" style="text;html=1;strokeColor=none;fillColor=none;align=center;verticalAlign=middle;whiteSpace=wrap;fontSize=12;fontColor=#000000;" parent="1" vertex="1">
                    <mxGeometry x="70" y="765" width="60" height="30" as="geometry"/>
                </mxCell>
                <mxCell id="78" value="a" style="text;html=1;strokeColor=none;fillColor=none;align=center;verticalAlign=middle;whiteSpace=wrap;fontSize=12;fontColor=#000000;" parent="1" vertex="1">
                    <mxGeometry x="70" y="885" width="60" height="30" as="geometry"/>
                </mxCell>
                <mxCell id="87" value="" style="edgeStyle=none;html=1;fontSize=12;fontColor=#000000;" parent="1" source="79" target="80" edge="1">
                    <mxGeometry relative="1" as="geometry"/>
                </mxCell>
                <mxCell id="79" value="b" style="text;html=1;strokeColor=none;fillColor=none;align=center;verticalAlign=middle;whiteSpace=wrap;fontSize=12;fontColor=#000000;" parent="1" vertex="1">
                    <mxGeometry x="190" y="765" width="60" height="30" as="geometry"/>
                </mxCell>
                <mxCell id="80" value="b" style="text;html=1;strokeColor=none;fillColor=none;align=center;verticalAlign=middle;whiteSpace=wrap;fontSize=12;fontColor=#000000;" parent="1" vertex="1">
                    <mxGeometry x="190" y="885" width="60" height="30" as="geometry"/>
                </mxCell>
                <mxCell id="88" style="edgeStyle=none;html=1;entryX=0.25;entryY=0;entryDx=0;entryDy=0;fontSize=12;fontColor=#000000;" parent="1" source="81" target="82" edge="1">
                    <mxGeometry relative="1" as="geometry"/>
                </mxCell>
                <mxCell id="81" value="c" style="text;html=1;strokeColor=none;fillColor=none;align=center;verticalAlign=middle;whiteSpace=wrap;fontSize=12;fontColor=#000000;" parent="1" vertex="1">
                    <mxGeometry x="310" y="765" width="60" height="30" as="geometry"/>
                </mxCell>
                <mxCell id="82" value="c" style="text;html=1;strokeColor=none;fillColor=none;align=center;verticalAlign=middle;whiteSpace=wrap;fontSize=12;fontColor=#000000;" parent="1" vertex="1">
                    <mxGeometry x="430" y="885" width="60" height="30" as="geometry"/>
                </mxCell>
                <mxCell id="89" style="edgeStyle=none;html=1;entryX=0.25;entryY=0;entryDx=0;entryDy=0;fontSize=12;fontColor=#000000;" parent="1" source="83" target="84" edge="1">
                    <mxGeometry relative="1" as="geometry"/>
                </mxCell>
                <mxCell id="83" value="d" style="text;html=1;strokeColor=none;fillColor=none;align=center;verticalAlign=middle;whiteSpace=wrap;fontSize=12;fontColor=#000000;" parent="1" vertex="1">
                    <mxGeometry x="430" y="765" width="60" height="30" as="geometry"/>
                </mxCell>
                <mxCell id="84" value="d" style="text;html=1;strokeColor=none;fillColor=none;align=center;verticalAlign=middle;whiteSpace=wrap;fontSize=12;fontColor=#000000;" parent="1" vertex="1">
                    <mxGeometry x="550" y="885" width="60" height="30" as="geometry"/>
                </mxCell>
                <mxCell id="85" value="f" style="text;html=1;strokeColor=none;fillColor=none;align=center;verticalAlign=middle;whiteSpace=wrap;fontSize=12;fontColor=#000000;" parent="1" vertex="1">
                    <mxGeometry x="310" y="885" width="60" height="30" as="geometry"/>
                </mxCell>
                <mxCell id="90" value="patch" style="text;html=1;strokeColor=none;fillColor=none;align=center;verticalAlign=middle;whiteSpace=wrap;fontSize=12;fontColor=#FFFFFF;" parent="1" vertex="1">
                    <mxGeometry x="100" y="820" width="60" height="30" as="geometry"/>
                </mxCell>
                <mxCell id="91" value="patch" style="text;html=1;strokeColor=none;fillColor=none;align=center;verticalAlign=middle;whiteSpace=wrap;fontSize=12;fontColor=#FFFFFF;" parent="1" vertex="1">
                    <mxGeometry x="210" y="820" width="60" height="30" as="geometry"/>
                </mxCell>
                <mxCell id="92" value="patch" style="text;html=1;strokeColor=none;fillColor=none;align=center;verticalAlign=middle;whiteSpace=wrap;fontSize=12;fontColor=#FFFFFF;" parent="1" vertex="1">
                    <mxGeometry x="384" y="820" width="60" height="30" as="geometry"/>
                </mxCell>
                <mxCell id="93" value="patch" style="text;html=1;strokeColor=none;fillColor=none;align=center;verticalAlign=middle;whiteSpace=wrap;fontSize=12;fontColor=#FFFFFF;" parent="1" vertex="1">
                    <mxGeometry x="500" y="820" width="60" height="30" as="geometry"/>
                </mxCell>
                <mxCell id="94" value="新增" style="text;html=1;strokeColor=none;fillColor=none;align=center;verticalAlign=middle;whiteSpace=wrap;fontSize=12;fontColor=#FFFFFF;" parent="1" vertex="1">
                    <mxGeometry x="310" y="840" width="60" height="30" as="geometry"/>
                </mxCell>
                <mxCell id="95" value="第四步如果新的节点遍历完毕，但是依然有旧的节点，那么就移除旧节点" style="text;html=1;strokeColor=none;fillColor=none;align=center;verticalAlign=middle;whiteSpace=wrap;fontSize=16;fontColor=#FF0000;" parent="1" vertex="1">
                    <mxGeometry x="80" y="980" width="520" height="30" as="geometry"/>
                </mxCell>
                <mxCell id="96" value="" style="ellipse;whiteSpace=wrap;html=1;aspect=fixed;fontSize=16;fontColor=#000000;fillColor=#F0F0F0;" parent="1" vertex="1">
                    <mxGeometry x="80" y="1040" width="40" height="40" as="geometry"/>
                </mxCell>
                <mxCell id="97" value="" style="ellipse;whiteSpace=wrap;html=1;aspect=fixed;fontSize=16;fontColor=#000000;fillColor=#F0F0F0;" parent="1" vertex="1">
                    <mxGeometry x="80" y="1160" width="40" height="40" as="geometry"/>
                </mxCell>
                <mxCell id="98" value="" style="ellipse;whiteSpace=wrap;html=1;aspect=fixed;fontSize=16;fontColor=#000000;fillColor=#99CCFF;" parent="1" vertex="1">
                    <mxGeometry x="200" y="1040" width="40" height="40" as="geometry"/>
                </mxCell>
                <mxCell id="99" value="" style="ellipse;whiteSpace=wrap;html=1;aspect=fixed;fontSize=16;fontColor=#000000;fillColor=#CCFFCC;" parent="1" vertex="1">
                    <mxGeometry x="320" y="1040" width="40" height="40" as="geometry"/>
                </mxCell>
                <mxCell id="100" value="" style="ellipse;whiteSpace=wrap;html=1;aspect=fixed;fontSize=16;fontColor=#000000;fillColor=#FFE6CC;" parent="1" vertex="1">
                    <mxGeometry x="440" y="1040" width="40" height="40" as="geometry"/>
                </mxCell>
                <mxCell id="101" value="" style="ellipse;whiteSpace=wrap;html=1;aspect=fixed;fontSize=16;fontColor=#000000;fillColor=#99CCFF;" parent="1" vertex="1">
                    <mxGeometry x="200" y="1160" width="40" height="40" as="geometry"/>
                </mxCell>
                <mxCell id="102" value="" style="ellipse;whiteSpace=wrap;html=1;aspect=fixed;fontSize=16;fontColor=#000000;fillColor=#FFE6CC;" parent="1" vertex="1">
                    <mxGeometry x="320" y="1160" width="40" height="40" as="geometry"/>
                </mxCell>
                <mxCell id="110" value="" style="edgeStyle=none;html=1;fontSize=12;fontColor=#000000;" parent="1" source="103" target="104" edge="1">
                    <mxGeometry relative="1" as="geometry"/>
                </mxCell>
                <mxCell id="103" value="a" style="text;html=1;strokeColor=none;fillColor=none;align=center;verticalAlign=middle;whiteSpace=wrap;fontSize=12;fontColor=#000000;" parent="1" vertex="1">
                    <mxGeometry x="70" y="1045" width="60" height="30" as="geometry"/>
                </mxCell>
                <mxCell id="104" value="a" style="text;html=1;strokeColor=none;fillColor=none;align=center;verticalAlign=middle;whiteSpace=wrap;fontSize=12;fontColor=#000000;" parent="1" vertex="1">
                    <mxGeometry x="70" y="1165" width="60" height="30" as="geometry"/>
                </mxCell>
                <mxCell id="111" value="" style="edgeStyle=none;html=1;fontSize=12;fontColor=#000000;" parent="1" source="105" target="106" edge="1">
                    <mxGeometry relative="1" as="geometry"/>
                </mxCell>
                <mxCell id="105" value="b" style="text;html=1;strokeColor=none;fillColor=none;align=center;verticalAlign=middle;whiteSpace=wrap;fontSize=12;fontColor=#000000;" parent="1" vertex="1">
                    <mxGeometry x="190" y="1045" width="60" height="30" as="geometry"/>
                </mxCell>
                <mxCell id="106" value="b" style="text;html=1;strokeColor=none;fillColor=none;align=center;verticalAlign=middle;whiteSpace=wrap;fontSize=12;fontColor=#000000;" parent="1" vertex="1">
                    <mxGeometry x="190" y="1165" width="60" height="30" as="geometry"/>
                </mxCell>
                <mxCell id="107" value="c" style="text;html=1;strokeColor=none;fillColor=none;align=center;verticalAlign=middle;whiteSpace=wrap;fontSize=12;fontColor=#000000;" parent="1" vertex="1">
                    <mxGeometry x="310" y="1045" width="60" height="30" as="geometry"/>
                </mxCell>
                <mxCell id="112" style="edgeStyle=none;html=1;entryX=0.75;entryY=0;entryDx=0;entryDy=0;fontSize=12;fontColor=#000000;" parent="1" source="108" target="109" edge="1">
                    <mxGeometry relative="1" as="geometry"/>
                </mxCell>
                <mxCell id="108" value="d" style="text;html=1;strokeColor=none;fillColor=none;align=center;verticalAlign=middle;whiteSpace=wrap;fontSize=12;fontColor=#000000;" parent="1" vertex="1">
                    <mxGeometry x="430" y="1045" width="60" height="30" as="geometry"/>
                </mxCell>
                <mxCell id="109" value="d" style="text;html=1;strokeColor=none;fillColor=none;align=center;verticalAlign=middle;whiteSpace=wrap;fontSize=12;fontColor=#000000;" parent="1" vertex="1">
                    <mxGeometry x="310" y="1165" width="60" height="30" as="geometry"/>
                </mxCell>
                <mxCell id="113" value="patch&lt;span style=&quot;color: rgba(0 , 0 , 0 , 0) ; font-family: monospace ; font-size: 0px&quot;&gt;%3CmxGraphModel%3E%3Croot%3E%3CmxCell%20id%3D%220%22%2F%3E%3CmxCell%20id%3D%221%22%20parent%3D%220%22%2F%3E%3CmxCell%20id%3D%222%22%20value%3D%22%22%20style%3D%22ellipse%3BwhiteSpace%3Dwrap%3Bhtml%3D1%3Baspect%3Dfixed%3BfontSize%3D16%3BfontColor%3D%23000000%3BfillColor%3D%23FFFFFF%3B%22%20vertex%3D%221%22%20parent%3D%221%22%3E%3CmxGeometry%20x%3D%22200%22%20y%3D%221160%22%20width%3D%2240%22%20height%3D%2240%22%20as%3D%22geometry%22%2F%3E%3C%2FmxCell%3E%3C%2Froot%3E%3C%2FmxGraphModel%3E&lt;/span&gt;" style="text;html=1;strokeColor=none;fillColor=none;align=center;verticalAlign=middle;whiteSpace=wrap;fontSize=12;fontColor=#FFFFFF;" parent="1" vertex="1">
                    <mxGeometry x="100" y="1110" width="60" height="30" as="geometry"/>
                </mxCell>
                <mxCell id="114" value="patch&lt;span style=&quot;color: rgba(0 , 0 , 0 , 0) ; font-family: monospace ; font-size: 0px&quot;&gt;%3CmxGraphModel%3E%3Croot%3E%3CmxCell%20id%3D%220%22%2F%3E%3CmxCell%20id%3D%221%22%20parent%3D%220%22%2F%3E%3CmxCell%20id%3D%222%22%20value%3D%22%22%20style%3D%22ellipse%3BwhiteSpace%3Dwrap%3Bhtml%3D1%3Baspect%3Dfixed%3BfontSize%3D16%3BfontColor%3D%23000000%3BfillColor%3D%23FFFFFF%3B%22%20vertex%3D%221%22%20parent%3D%221%22%3E%3CmxGeometry%20x%3D%22200%22%20y%3D%221160%22%20width%3D%2240%22%20height%3D%2240%22%20as%3D%22geometry%22%2F%3E%3C%2FmxCell%3E%3C%2Froot%3E%3C%2FmxGraphModel%3E&lt;/span&gt;" style="text;html=1;strokeColor=none;fillColor=none;align=center;verticalAlign=middle;whiteSpace=wrap;fontSize=12;fontColor=#FFFFFF;" parent="1" vertex="1">
                    <mxGeometry x="220" y="1110" width="60" height="30" as="geometry"/>
                </mxCell>
                <mxCell id="115" value="patch&lt;span style=&quot;color: rgba(0 , 0 , 0 , 0) ; font-family: monospace ; font-size: 0px&quot;&gt;%3CmxGraphModel%3E%3Croot%3E%3CmxCell%20id%3D%220%22%2F%3E%3CmxCell%20id%3D%221%22%20parent%3D%220%22%2F%3E%3CmxCell%20id%3D%222%22%20value%3D%22%22%20style%3D%22ellipse%3BwhiteSpace%3Dwrap%3Bhtml%3D1%3Baspect%3Dfixed%3BfontSize%3D16%3BfontColor%3D%23000000%3BfillColor%3D%23FFFFFF%3B%22%20vertex%3D%221%22%20parent%3D%221%22%3E%3CmxGeometry%20x%3D%22200%22%20y%3D%221160%22%20width%3D%2240%22%20height%3D%2240%22%20as%3D%22geometry%22%2F%3E%3C%2FmxCell%3E%3C%2Froot%3E%3C%2FmxGraphModel%3E&lt;/span&gt;" style="text;html=1;strokeColor=none;fillColor=none;align=center;verticalAlign=middle;whiteSpace=wrap;fontSize=12;fontColor=#FFFFFF;" parent="1" vertex="1">
                    <mxGeometry x="390" y="1110" width="60" height="30" as="geometry"/>
                </mxCell>
                <mxCell id="116" value="移除" style="text;html=1;strokeColor=none;fillColor=none;align=center;verticalAlign=middle;whiteSpace=wrap;fontSize=12;fontColor=#FFFFFF;" parent="1" vertex="1">
                    <mxGeometry x="310" y="1090" width="60" height="30" as="geometry"/>
                </mxCell>
                <mxCell id="117" value="旧VNode" style="text;html=1;strokeColor=none;fillColor=none;align=center;verticalAlign=middle;whiteSpace=wrap;" parent="1" vertex="1">
                    <mxGeometry x="670" y="1040" width="60" height="30" as="geometry"/>
                </mxCell>
                <mxCell id="118" value="新VNode" style="text;html=1;strokeColor=none;fillColor=none;align=center;verticalAlign=middle;whiteSpace=wrap;" parent="1" vertex="1">
                    <mxGeometry x="670" y="1160" width="60" height="30" as="geometry"/>
                </mxCell>
                <mxCell id="120" value="第五步是最特色的，中间还有很多未知或者乱序的节点" style="text;html=1;strokeColor=none;fillColor=none;align=center;verticalAlign=middle;whiteSpace=wrap;fontSize=16;fontColor=#FF0000;" parent="1" vertex="1">
                    <mxGeometry x="40" y="1250" width="390" height="30" as="geometry"/>
                </mxCell>
                <mxCell id="121" value="" style="ellipse;whiteSpace=wrap;html=1;aspect=fixed;fontSize=12;fontColor=#FFFFFF;fillColor=#F0F0F0;" parent="1" vertex="1">
                    <mxGeometry x="40" y="1320" width="40" height="40" as="geometry"/>
                </mxCell>
                <mxCell id="122" value="" style="ellipse;whiteSpace=wrap;html=1;aspect=fixed;fontSize=12;fontColor=#FFFFFF;fillColor=#F0F0F0;" parent="1" vertex="1">
                    <mxGeometry x="40" y="1440" width="40" height="40" as="geometry"/>
                </mxCell>
                <mxCell id="123" value="" style="ellipse;whiteSpace=wrap;html=1;aspect=fixed;fontSize=12;fontColor=#FFFFFF;fillColor=#99CCFF;" parent="1" vertex="1">
                    <mxGeometry x="160" y="1320" width="40" height="40" as="geometry"/>
                </mxCell>
                <mxCell id="124" value="" style="ellipse;whiteSpace=wrap;html=1;aspect=fixed;fontSize=12;fontColor=#FFFFFF;fillColor=#FF9999;" parent="1" vertex="1">
                    <mxGeometry x="280" y="1320" width="40" height="40" as="geometry"/>
                </mxCell>
                <mxCell id="125" value="" style="ellipse;whiteSpace=wrap;html=1;aspect=fixed;fontSize=12;fontColor=#FFFFFF;fillColor=#FFFF99;" parent="1" vertex="1">
                    <mxGeometry x="400" y="1320" width="40" height="40" as="geometry"/>
                </mxCell>
                <mxCell id="126" value="" style="ellipse;whiteSpace=wrap;html=1;aspect=fixed;fontSize=12;fontColor=#FFFFFF;fillColor=#E5CCFF;" parent="1" vertex="1">
                    <mxGeometry x="640" y="1320" width="40" height="40" as="geometry"/>
                </mxCell>
                <mxCell id="127" value="" style="ellipse;whiteSpace=wrap;html=1;aspect=fixed;fontSize=12;fontColor=#FFFFFF;fillColor=#CCFFCC;" parent="1" vertex="1">
                    <mxGeometry x="760" y="1320" width="40" height="40" as="geometry"/>
                </mxCell>
                <mxCell id="128" value="" style="ellipse;whiteSpace=wrap;html=1;aspect=fixed;fontSize=12;fontColor=#FFFFFF;fillColor=#FFE6CC;" parent="1" vertex="1">
                    <mxGeometry x="880" y="1320" width="40" height="40" as="geometry"/>
                </mxCell>
                <mxCell id="129" value="" style="ellipse;whiteSpace=wrap;html=1;aspect=fixed;fontSize=12;fontColor=#FFFFFF;fillColor=#99CCFF;" parent="1" vertex="1">
                    <mxGeometry x="160" y="1440" width="40" height="40" as="geometry"/>
                </mxCell>
                <mxCell id="130" value="" style="ellipse;whiteSpace=wrap;html=1;aspect=fixed;fontSize=12;fontColor=#FFFFFF;fillColor=#FFFF99;" parent="1" vertex="1">
                    <mxGeometry x="280" y="1440" width="40" height="40" as="geometry"/>
                </mxCell>
                <mxCell id="131" value="" style="ellipse;whiteSpace=wrap;html=1;aspect=fixed;fontSize=12;fontColor=#FFFFFF;fillColor=#E5CCFF;" parent="1" vertex="1">
                    <mxGeometry x="400" y="1440" width="40" height="40" as="geometry"/>
                </mxCell>
                <mxCell id="132" value="" style="ellipse;whiteSpace=wrap;html=1;aspect=fixed;fontSize=12;fontColor=#FFFFFF;fillColor=#99FF99;" parent="1" vertex="1">
                    <mxGeometry x="640" y="1440" width="40" height="40" as="geometry"/>
                </mxCell>
                <mxCell id="133" value="" style="ellipse;whiteSpace=wrap;html=1;aspect=fixed;fontSize=12;fontColor=#FFFFFF;fillColor=#CCFFCC;" parent="1" vertex="1">
                    <mxGeometry x="760" y="1440" width="40" height="40" as="geometry"/>
                </mxCell>
                <mxCell id="134" value="" style="ellipse;whiteSpace=wrap;html=1;aspect=fixed;fontSize=12;fontColor=#FFFFFF;fillColor=#FFE6CC;" parent="1" vertex="1">
                    <mxGeometry x="880" y="1440" width="40" height="40" as="geometry"/>
                </mxCell>
                <mxCell id="135" value="旧VNode" style="text;html=1;strokeColor=none;fillColor=none;align=center;verticalAlign=middle;whiteSpace=wrap;" parent="1" vertex="1">
                    <mxGeometry x="960" y="1320" width="60" height="30" as="geometry"/>
                </mxCell>
                <mxCell id="136" value="新VNode" style="text;html=1;strokeColor=none;fillColor=none;align=center;verticalAlign=middle;whiteSpace=wrap;" parent="1" vertex="1">
                    <mxGeometry x="960" y="1445" width="60" height="30" as="geometry"/>
                </mxCell>
                <mxCell id="137" value="" style="ellipse;whiteSpace=wrap;html=1;aspect=fixed;fontSize=12;fontColor=#FFFFFF;fillColor=#99FF99;" parent="1" vertex="1">
                    <mxGeometry x="520" y="1320" width="40" height="40" as="geometry"/>
                </mxCell>
                <mxCell id="138" value="" style="ellipse;whiteSpace=wrap;html=1;aspect=fixed;fontSize=12;fontColor=#FFFFFF;fillColor=#FF99FF;" parent="1" vertex="1">
                    <mxGeometry x="520" y="1440" width="40" height="40" as="geometry"/>
                </mxCell>
                <mxCell id="155" value="" style="edgeStyle=none;html=1;fontSize=12;fontColor=#000000;" parent="1" source="139" edge="1">
                    <mxGeometry relative="1" as="geometry">
                        <mxPoint x="60" y="1440" as="targetPoint"/>
                    </mxGeometry>
                </mxCell>
                <mxCell id="139" value="a" style="text;html=1;strokeColor=none;fillColor=none;align=center;verticalAlign=middle;whiteSpace=wrap;fontSize=12;fontColor=#000000;" parent="1" vertex="1">
                    <mxGeometry x="30" y="1325" width="60" height="30" as="geometry"/>
                </mxCell>
                <mxCell id="140" value="a" style="text;html=1;strokeColor=none;fillColor=none;align=center;verticalAlign=middle;whiteSpace=wrap;fontSize=12;fontColor=#000000;" parent="1" vertex="1">
                    <mxGeometry x="30" y="1445" width="60" height="30" as="geometry"/>
                </mxCell>
                <mxCell id="156" value="" style="edgeStyle=none;html=1;fontSize=12;fontColor=#000000;" parent="1" source="141" edge="1">
                    <mxGeometry relative="1" as="geometry">
                        <mxPoint x="180" y="1440" as="targetPoint"/>
                    </mxGeometry>
                </mxCell>
                <mxCell id="141" value="b" style="text;html=1;strokeColor=none;fillColor=none;align=center;verticalAlign=middle;whiteSpace=wrap;fontSize=12;fontColor=#000000;" parent="1" vertex="1">
                    <mxGeometry x="150" y="1325" width="60" height="30" as="geometry"/>
                </mxCell>
                <mxCell id="142" value="b" style="text;html=1;strokeColor=none;fillColor=none;align=center;verticalAlign=middle;whiteSpace=wrap;fontSize=12;fontColor=#000000;" parent="1" vertex="1">
                    <mxGeometry x="150" y="1445" width="60" height="30" as="geometry"/>
                </mxCell>
                <mxCell id="157" value="" style="edgeStyle=none;html=1;fontSize=12;fontColor=#000000;" parent="1" source="143" edge="1">
                    <mxGeometry relative="1" as="geometry">
                        <mxPoint x="780" y="1440" as="targetPoint"/>
                    </mxGeometry>
                </mxCell>
                <mxCell id="143" value="c" style="text;html=1;strokeColor=none;fillColor=none;align=center;verticalAlign=middle;whiteSpace=wrap;fontSize=12;fontColor=#000000;" parent="1" vertex="1">
                    <mxGeometry x="750" y="1325" width="60" height="30" as="geometry"/>
                </mxCell>
                <mxCell id="144" value="c" style="text;html=1;strokeColor=none;fillColor=none;align=center;verticalAlign=middle;whiteSpace=wrap;fontSize=12;fontColor=#000000;" parent="1" vertex="1">
                    <mxGeometry x="750" y="1445" width="60" height="30" as="geometry"/>
                </mxCell>
                <mxCell id="158" value="" style="edgeStyle=none;html=1;fontSize=12;fontColor=#000000;" parent="1" source="145" edge="1">
                    <mxGeometry relative="1" as="geometry">
                        <mxPoint x="900" y="1440" as="targetPoint"/>
                    </mxGeometry>
                </mxCell>
                <mxCell id="145" value="d" style="text;html=1;strokeColor=none;fillColor=none;align=center;verticalAlign=middle;whiteSpace=wrap;fontSize=12;fontColor=#000000;" parent="1" vertex="1">
                    <mxGeometry x="870" y="1325" width="60" height="30" as="geometry"/>
                </mxCell>
                <mxCell id="146" value="d" style="text;html=1;strokeColor=none;fillColor=none;align=center;verticalAlign=middle;whiteSpace=wrap;fontSize=12;fontColor=#000000;" parent="1" vertex="1">
                    <mxGeometry x="870" y="1445" width="60" height="30" as="geometry"/>
                </mxCell>
                <mxCell id="147" value="i" style="text;html=1;strokeColor=none;fillColor=none;align=center;verticalAlign=middle;whiteSpace=wrap;fontSize=12;fontColor=#000000;" parent="1" vertex="1">
                    <mxGeometry x="270" y="1325" width="60" height="30" as="geometry"/>
                </mxCell>
                <mxCell id="148" value="h" style="text;html=1;strokeColor=none;fillColor=none;align=center;verticalAlign=middle;whiteSpace=wrap;fontSize=12;fontColor=#000000;" parent="1" vertex="1">
                    <mxGeometry x="270" y="1445" width="60" height="30" as="geometry"/>
                </mxCell>
                <mxCell id="164" style="edgeStyle=none;html=1;fontSize=12;fontColor=#000000;" parent="1" source="149" target="130" edge="1">
                    <mxGeometry relative="1" as="geometry"/>
                </mxCell>
                <mxCell id="149" value="h" style="text;html=1;strokeColor=none;fillColor=none;align=center;verticalAlign=middle;whiteSpace=wrap;fontSize=12;fontColor=#000000;" parent="1" vertex="1">
                    <mxGeometry x="390" y="1325" width="60" height="30" as="geometry"/>
                </mxCell>
                <mxCell id="159" style="edgeStyle=none;html=1;entryX=0.25;entryY=0;entryDx=0;entryDy=0;fontSize=12;fontColor=#000000;" parent="1" source="150" target="151" edge="1">
                    <mxGeometry relative="1" as="geometry"/>
                </mxCell>
                <mxCell id="150" value="m" style="text;html=1;strokeColor=none;fillColor=none;align=center;verticalAlign=middle;whiteSpace=wrap;fontSize=12;fontColor=#000000;" parent="1" vertex="1">
                    <mxGeometry x="510" y="1325" width="60" height="30" as="geometry"/>
                </mxCell>
                <mxCell id="151" value="m" style="text;html=1;strokeColor=none;fillColor=none;align=center;verticalAlign=middle;whiteSpace=wrap;fontSize=12;fontColor=#000000;" parent="1" vertex="1">
                    <mxGeometry x="630" y="1445" width="60" height="30" as="geometry"/>
                </mxCell>
                <mxCell id="163" style="edgeStyle=none;html=1;exitX=0.25;exitY=1;exitDx=0;exitDy=0;entryX=0.75;entryY=0;entryDx=0;entryDy=0;fontSize=12;fontColor=#000000;" parent="1" source="152" target="154" edge="1">
                    <mxGeometry relative="1" as="geometry"/>
                </mxCell>
                <mxCell id="152" value="n" style="text;html=1;strokeColor=none;fillColor=none;align=center;verticalAlign=middle;whiteSpace=wrap;fontSize=12;fontColor=#000000;" parent="1" vertex="1">
                    <mxGeometry x="630" y="1325" width="60" height="30" as="geometry"/>
                </mxCell>
                <mxCell id="153" value="f" style="text;html=1;strokeColor=none;fillColor=none;align=center;verticalAlign=middle;whiteSpace=wrap;fontSize=12;fontColor=#000000;" parent="1" vertex="1">
                    <mxGeometry x="510" y="1445" width="60" height="30" as="geometry"/>
                </mxCell>
                <mxCell id="154" value="n" style="text;html=1;strokeColor=none;fillColor=none;align=center;verticalAlign=middle;whiteSpace=wrap;fontSize=12;fontColor=#000000;" parent="1" vertex="1">
                    <mxGeometry x="390" y="1445" width="60" height="30" as="geometry"/>
                </mxCell>
                <mxCell id="165" value="patch" style="text;html=1;strokeColor=none;fillColor=none;align=center;verticalAlign=middle;whiteSpace=wrap;fontSize=12;fontColor=#FFFFFF;" parent="1" vertex="1">
                    <mxGeometry x="50" y="1380" width="60" height="30" as="geometry"/>
                </mxCell>
                <mxCell id="166" value="patch" style="text;html=1;strokeColor=none;fillColor=none;align=center;verticalAlign=middle;whiteSpace=wrap;fontSize=12;fontColor=#FFFFFF;" parent="1" vertex="1">
                    <mxGeometry x="170" y="1380" width="60" height="30" as="geometry"/>
                </mxCell>
                <mxCell id="167" value="patch" style="text;html=1;strokeColor=none;fillColor=none;align=center;verticalAlign=middle;whiteSpace=wrap;fontSize=12;fontColor=#FFFFFF;" parent="1" vertex="1">
                    <mxGeometry x="770" y="1380" width="60" height="30" as="geometry"/>
                </mxCell>
                <mxCell id="168" value="patch" style="text;html=1;strokeColor=none;fillColor=none;align=center;verticalAlign=middle;whiteSpace=wrap;fontSize=12;fontColor=#FFFFFF;" parent="1" vertex="1">
                    <mxGeometry x="890" y="1380" width="60" height="30" as="geometry"/>
                </mxCell>
                <mxCell id="169" value="patch" style="text;html=1;strokeColor=none;fillColor=none;align=center;verticalAlign=middle;whiteSpace=wrap;fontSize=12;fontColor=#FFFFFF;" parent="1" vertex="1">
                    <mxGeometry x="610" y="1380" width="60" height="30" as="geometry"/>
                </mxCell>
                <mxCell id="170" value="patch" style="text;html=1;strokeColor=none;fillColor=none;align=center;verticalAlign=middle;whiteSpace=wrap;fontSize=12;fontColor=#FFFFFF;" parent="1" vertex="1">
                    <mxGeometry x="490" y="1380" width="60" height="30" as="geometry"/>
                </mxCell>
                <mxCell id="171" value="patch" style="text;html=1;strokeColor=none;fillColor=none;align=center;verticalAlign=middle;whiteSpace=wrap;fontSize=12;fontColor=#FFFFFF;" parent="1" vertex="1">
                    <mxGeometry x="360" y="1380" width="60" height="30" as="geometry"/>
                </mxCell>
                <mxCell id="172" value="移除" style="text;html=1;strokeColor=none;fillColor=none;align=center;verticalAlign=middle;whiteSpace=wrap;fontSize=12;fontColor=#FFFFFF;" parent="1" vertex="1">
                    <mxGeometry x="270" y="1360" width="60" height="30" as="geometry"/>
                </mxCell>
                <mxCell id="173" value="新增" style="text;html=1;strokeColor=none;fillColor=none;align=center;verticalAlign=middle;whiteSpace=wrap;fontSize=12;fontColor=#FFFFFF;" parent="1" vertex="1">
                    <mxGeometry x="510" y="1410" width="60" height="30" as="geometry"/>
                </mxCell>
            </root>
        </mxGraphModel>
    </diagram>
</mxfile>